HIERARCHY
ROOT Hips
{
	OFFSET -3.958830 18.904000 13.208200
	CHANNELS 6 Xposition Yposition Zposition Zrotation Yrotation Xrotation 
	JOINT LHipJoint
	{
		OFFSET 0.000000 0.000000 0.000000
		CHANNELS 3 Zrotation Yrotation Xrotation
		JOINT LeftUpLeg
		{
			OFFSET 1.800000 -1.400000 0.085000
			CHANNELS 3 Zrotation Yrotation Xrotation
			JOINT LeftLeg
			{
				OFFSET 2.215000 -6.000000 0.000000
				CHANNELS 3 Zrotation Yrotation Xrotation
				JOINT LeftFoot
				{
					OFFSET 2.500000 -6.900000 0.000000
					CHANNELS 3 Zrotation Yrotation Xrotation
					JOINT LeftToeBase
					{
						OFFSET 0.200000 -0.500000 1.950000
						CHANNELS 3 Zrotation Yrotation Xrotation
						End Site
						{
							OFFSET 0.000000 0.000000 0.000000
						}
					}
				}
			}
		}
	}
	JOINT RHipJoint
	{
		OFFSET 0.000000 0.000000 0.000000
		CHANNELS 3 Zrotation Yrotation Xrotation
		JOINT RightUpLeg
		{
			OFFSET -1.800000 -1.400000 0.085000
			CHANNELS 3 Zrotation Yrotation Xrotation
			JOINT RightLeg
			{
				OFFSET -2.215000 -6.000000 0.000000
				CHANNELS 3 Zrotation Yrotation Xrotation
				JOINT RightFoot
				{
					OFFSET -2.500000 -6.900000 0.000000
					CHANNELS 3 Zrotation Yrotation Xrotation
					JOINT RightToeBase
					{
						OFFSET -0.200000 -0.500000 1.950000
						CHANNELS 3 Zrotation Yrotation Xrotation
						End Site
						{
							OFFSET 0.000000 0.000000 0.000000
						}
					}
				}
			}
		}
	}
	JOINT LowerBack
	{
		OFFSET 0.000000 0.000000 0.000000
		CHANNELS 3 Zrotation Yrotation Xrotation
		JOINT Spine
		{
			OFFSET -0.087000 1.940000 -0.288900
			CHANNELS 3 Zrotation Yrotation Xrotation
			JOINT Spine1
			{
				OFFSET 0.000000 1.950000 0.060000
				CHANNELS 3 Zrotation Yrotation Xrotation
				JOINT Neck
				{
					OFFSET 0.000000 0.000000 0.000000
					CHANNELS 3 Zrotation Yrotation Xrotation
					JOINT Neck1
					{
						OFFSET 0.000000 1.600000 0.340000
						CHANNELS 3 Zrotation Yrotation Xrotation
						JOINT Head
						{
							OFFSET 0.000000 1.667000 -0.240000
							CHANNELS 3 Zrotation Yrotation Xrotation
							End Site
							{
								OFFSET 0.000000 0.000000 0.000000
							}
						}
					}
				}
				JOINT LeftShoulder
				{
					OFFSET 0.000000 0.000000 0.000000
					CHANNELS 3 Zrotation Yrotation Xrotation
					JOINT LeftArm
					{
						OFFSET 2.700000 1.550000 -0.730000
						CHANNELS 3 Zrotation Yrotation Xrotation
						JOINT LeftForeArm
						{
							OFFSET 5.450000 0.000000 0.000000
							CHANNELS 3 Zrotation Yrotation Xrotation
							JOINT LeftHand
							{
								OFFSET 3.450000 0.000000 0.000000
								CHANNELS 3 Zrotation Yrotation Xrotation
								JOINT LeftHandIndex1
								{
									OFFSET 0.750000 0.000000 0.000000
									CHANNELS 3 Zrotation Yrotation Xrotation
									End Site
									{
										OFFSET 0.000000 0.000000 0.000000
									}
								}
							}
						}
					}
				}
				JOINT RightShoulder
				{
					OFFSET 0.000000 0.000000 0.000000
					CHANNELS 3 Zrotation Yrotation Xrotation
					JOINT RightArm
					{
						OFFSET -2.700000 1.550000 -0.730000
						CHANNELS 3 Zrotation Yrotation Xrotation
						JOINT RightForeArm
						{
							OFFSET -5.450000 0.000000 0.000000
							CHANNELS 3 Zrotation Yrotation Xrotation
							JOINT RightHand
							{
								OFFSET -3.450000 0.000000 0.000000
								CHANNELS 3 Zrotation Yrotation Xrotation
								JOINT RightHandIndex1
								{
									OFFSET -0.750000 0.000000 0.000000
									CHANNELS 3 Zrotation Yrotation Xrotation
									End Site
									{
										OFFSET 0.000000 0.000000 0.000000
									}
								}
							}
						}
					}
				}
			}
		}
	}
}
MOTION
Frames: 7
Frame Time: 0.016667
-2.717270 17.544400 -2.930290 -8.432349 8.143143 -0.783971 -15.782311 10.644337 7.594227 44.006958 1.860381 -26.557586 -34.305458 11.993642 6.628724 0.820050 9.276786 1.404437 0.215360 -0.129860 0.142750 18.159749 -9.779609 0.788398 -18.385846 -0.954229 -4.468931 2.528606 -6.404293 19.073144 -0.255733 -4.105376 3.413143 -0.249540 0.202660 -0.159030 -2.817736 -1.957830 -9.526927 5.915097 0.342369 16.846159 -0.009048 3.590324 -3.914342 1.209416 -7.147553 -13.466694 -19.518657 5.881339 45.075147 9.564450 -4.916490 0.022430 -12.681179 4.864139 6.785699 -68.048653 11.211352 -6.240008 -97.908057 -57.480973 52.568063 -3.210607 3.258956 0.616500 -0.078250 -0.100760 0.210410 11.341710 3.243778 7.305736 53.796453 -14.342762 -15.746588 2.301568 31.333103 -0.074477 2.169626 -1.096723 -0.218370 0.252950 -0.141730 -0.152760 
-2.528730 17.587620 -2.887860 -7.672336 8.085199 0.414965 -15.806828 10.774692 7.483794 42.463172 1.374283 -26.026406 -34.928025 12.031195 6.487234 0.864795 9.114800 1.431518 0.189790 -0.185280 0.188940 18.056669 -9.921597 0.878744 -18.719144 -0.944514 -4.814711 1.577488 -5.965161 17.676801 -0.253448 -3.910842 3.466504 -0.323880 0.115470 -0.125040 -2.635403 -1.821969 -9.582549 3.527038 1.152138 15.973330 0.593513 4.285473 -7.084689 1.610034 -5.654487 -13.624564 -16.824231 4.257212 47.989592 7.794120 -4.911800 1.363220 -8.923777 9.255369 6.650403 -67.533285 15.119120 -5.874365 -98.345926 -55.208399 52.241697 -3.107746 3.314895 0.648490 -0.108260 -0.044410 0.168510 7.029646 -1.768679 7.191275 58.124449 -18.149154 -17.789546 6.589185 33.506764 1.078587 2.186542 -1.087358 -0.177830 0.169550 -0.151940 -0.180740 
-2.323840 17.617660 -2.825820 -8.045551 7.808623 1.555443 -15.757276 10.788022 7.485483 41.728747 1.176071 -25.417108 -35.577846 11.730271 5.383885 0.910981 8.989820 1.474551 0.146970 -0.235450 0.174560 18.065812 -10.026738 0.948981 -17.717917 -0.939388 -5.174126 0.607074 -5.527241 16.898993 -0.226945 -3.732054 3.560293 -0.374620 0.091070 -0.136650 -2.730284 -1.604851 -9.657065 4.231627 1.560086 14.882940 -0.233213 4.818968 -10.261874 1.654782 -4.827180 -13.691210 -15.441761 3.380856 49.894532 7.727380 -5.778530 3.366900 -6.369292 13.502839 6.044565 -64.282204 18.343160 -4.498219 -99.785086 -51.911959 52.175197 -3.055547 3.335656 0.650840 -0.114420 -0.038370 0.152470 4.317392 -6.435106 7.406840 59.964841 -23.090412 -19.167554 12.619637 35.293963 2.767669 2.173966 -1.083076 -0.170250 0.141470 -0.150280 -0.185140 
-2.119870 17.635780 -2.789240 -8.607361 7.657176 1.624864 -15.674277 10.883018 7.423290 40.973633 1.047742 -25.664032 -36.316660 12.374048 6.604114 0.975800 9.031716 1.461269 0.130670 -0.258560 0.184150 18.124729 -10.074957 0.987591 -16.789062 -1.020984 -5.027947 0.272875 -5.441288 17.039198 -0.233526 -3.675688 3.590497 -0.417840 0.068860 -0.135760 -2.946591 -1.640790 -9.650536 6.614959 1.377805 14.374618 -2.080908 4.648390 -10.957539 1.924555 -5.099238 -14.009911 -16.580119 3.582030 50.699225 7.131880 -6.058240 4.576970 -5.111791 15.702500 5.713031 -61.787498 20.427151 -5.224133 -99.377622 -50.370544 50.675462 -3.020852 3.344900 0.647180 -0.131580 -0.022130 0.138080 2.361651 -8.444858 8.042913 62.663089 -26.207304 -21.342732 16.885211 37.318805 3.956103 2.159225 -1.090676 -0.142690 0.122680 -0.151740 -0.178550 
-1.926260 17.645270 -2.760870 -8.488320 7.849162 1.410101 -15.642708 11.001756 7.318077 39.934994 0.897961 -26.553205 -37.316542 13.739385 9.312086 1.036597 9.208313 1.428624 0.099920 -0.284120 0.159840 18.128224 -10.133162 1.017629 -16.424210 -1.069112 -4.867911 0.429676 -5.568373 17.604767 -0.231431 -3.716550 3.601186 -0.435390 0.089650 -0.160610 -3.000176 -1.683742 -9.609654 7.082718 1.308035 14.502058 -2.529139 4.559928 -11.446564 1.992539 -5.276159 -14.003934 -16.997222 3.748224 50.429527 6.751390 -6.041780 5.811980 -4.895023 16.972264 5.368622 -59.282133 22.338737 -6.270171 -97.658187 -48.377037 47.449235 -3.012479 3.307222 0.640510 -0.125900 -0.030720 0.150850 1.997667 -9.576803 8.414948 63.553876 -28.479465 -22.647510 21.395772 38.630119 5.112341 2.138291 -1.101913 -0.160030 0.147270 -0.153750 -0.167480 
-1.751060 17.681580 -2.742340 -8.324335 7.401986 0.607422 -15.581845 11.187547 7.136927 38.800537 0.948949 -26.824686 -37.309784 15.364792 12.668193 1.072166 9.364906 1.364749 0.146730 -0.230810 0.199420 18.148116 -10.236651 1.053057 -15.746199 -1.007686 -5.090879 0.602689 -5.723863 19.131973 -0.256582 -3.747109 3.576336 -0.405280 0.036770 -0.201490 -3.115448 -1.679799 -9.525752 7.784780 1.301304 15.342967 -2.723855 4.640970 -11.863919 1.586092 -6.066723 -14.054379 -19.153952 4.964866 51.429825 8.322650 -6.575470 5.061350 -4.098705 18.114351 5.221158 -58.051034 23.602935 -7.589310 -92.865448 -46.206899 41.900188 -2.922495 3.273838 0.670260 -0.184480 -0.002450 0.156160 1.963522 -10.006810 8.376079 64.154467 -28.780873 -22.967762 24.622763 37.213063 5.343816 2.185716 -1.080861 -0.161020 0.153080 -0.196870 -0.175390 
-1.596060 17.714550 -2.742360 -7.903352 6.906674 -0.520186 -15.590223 11.517161 6.883282 37.202321 0.926168 -27.586804 -35.377958 17.173454 17.466642 1.052349 9.550266 1.296035 0.163990 -0.218500 0.234890 18.082074 -10.370856 1.061786 -15.055519 -0.768297 -5.989073 0.412099 -5.996110 22.363154 -0.278967 -3.870504 3.522458 -0.393390 0.023120 -0.224290 -2.997962 -1.821677 -9.407017 6.947469 1.605548 16.804725 -1.243309 5.183136 -11.969584 1.365221 -6.533538 -14.022843 -20.578428 5.713529 52.479936 8.299620 -6.416800 4.341090 -4.179711 18.107552 5.166786 -58.690950 24.516178 -9.810947 -85.877482 -44.450348 35.266014 -2.901457 3.155868 0.705310 -0.210390 0.019260 0.156490 2.678932 -9.356911 8.235552 64.612547 -27.972481 -23.200135 25.589147 35.158874 4.821666 2.223747 -1.012023 -0.180550 0.192730 -0.208180 -0.188370 
